<?xml version="1.0" encoding="UTF-8" standalone="no"?>
<!-- Created with Inkscape (http://www.inkscape.org/) -->

<svg
   xmlns:dc="http://purl.org/dc/elements/1.1/"
   xmlns:cc="http://creativecommons.org/ns#"
   xmlns:rdf="http://www.w3.org/1999/02/22-rdf-syntax-ns#"
   xmlns:svg="http://www.w3.org/2000/svg"
   xmlns="http://www.w3.org/2000/svg"
   xmlns:sodipodi="http://sodipodi.sourceforge.net/DTD/sodipodi-0.dtd"
   xmlns:inkscape="http://www.inkscape.org/namespaces/inkscape"
   width="67.035912mm"
   height="22.717892mm"
   viewBox="0 0 67.035912 22.717891"
   version="1.1"
   id="svg8"
   inkscape:version="0.92.5 (2060ec1f9f, 2020-04-08)"
   sodipodi:docname="logo.svg">
  <defs
     id="defs2" />
  <sodipodi:namedview
     id="base"
     pagecolor="#ffffff"
     bordercolor="#666666"
     borderopacity="1.0"
     inkscape:pageopacity="0.0"
     inkscape:pageshadow="2"
     inkscape:zoom="0.98994949"
     inkscape:cx="51.699415"
     inkscape:cy="-95.617191"
     inkscape:document-units="mm"
     inkscape:current-layer="layer1"
     showgrid="false"
     inkscape:window-width="1920"
     inkscape:window-height="1043"
     inkscape:window-x="0"
     inkscape:window-y="16"
     inkscape:window-maximized="1" />
  <metadata
     id="metadata5">
    <rdf:RDF>
      <cc:Work
         rdf:about="">
        <dc:format>image/svg+xml</dc:format>
        <dc:type
           rdf:resource="http://purl.org/dc/dcmitype/StillImage" />
        <dc:title />
      </cc:Work>
    </rdf:RDF>
  </metadata>
  <g
     inkscape:label="Layer 1"
     inkscape:groupmode="layer"
     id="layer1"
     transform="translate(92.999939,-131.27898)">
    <text
       xml:space="preserve"
       style="font-style:normal;font-weight:normal;font-size:36.45389557px;line-height:1.25;font-family:sans-serif;letter-spacing:0px;word-spacing:0px;fill:#000000;fill-opacity:1;stroke:none;stroke-width:0.91134733"
       x="-527.3877"
       y="-140.10677"
       id="text1191"><tspan
         sodipodi:role="line"
         id="tspan1189"
         x="-527.3877"
         y="-107.85361"
         style="stroke-width:0.91134733" /></text>
    <flowRoot
       xml:space="preserve"
       id="flowRoot1193"
       style="font-style:normal;font-weight:normal;font-size:40px;line-height:1.25;font-family:sans-serif;letter-spacing:0px;word-spacing:0px;fill:#000000;fill-opacity:1;stroke:none"
       transform="matrix(3.4444626,0,0,3.4444626,1162.5107,-1056.3542)"><flowRegion
         id="flowRegion1195"><rect
           id="rect1197"
           width="304.28571"
           height="261.42856"
           x="-1261.4286"
           y="818.23395" /></flowRegion><flowPara
         id="flowPara1199" /></flowRoot>    <rect
       style="fill:#000000;fill-opacity:1;stroke:none;stroke-width:0.09207262;stroke-linecap:round;stroke-linejoin:round;stroke-miterlimit:4;stroke-dasharray:none;stroke-dashoffset:0;stroke-opacity:1"
       id="rect848-8-5"
       width="1.693581"
       height="14.503691"
       x="-92.999939"
       y="131.27898" />
    <rect
       style="fill:#000000;fill-opacity:1;stroke:none;stroke-width:0.06526706;stroke-linecap:round;stroke-linejoin:round;stroke-miterlimit:4;stroke-dasharray:none;stroke-dashoffset:0;stroke-opacity:1"
       id="rect848-7-5-0"
       width="0.85100681"
       height="14.503691"
       x="-90.45932"
       y="131.27898" />
    <rect
       style="fill:#000000;fill-opacity:1;stroke:none;stroke-width:0.06508653;stroke-linecap:round;stroke-linejoin:round;stroke-miterlimit:4;stroke-dasharray:none;stroke-dashoffset:0;stroke-opacity:1"
       id="rect848-7-3-6-9"
       width="0.84630501"
       height="14.503691"
       x="-87.910477"
       y="131.27898" />
    <rect
       style="fill:#000000;fill-opacity:1;stroke:none;stroke-width:0.06516035;stroke-linecap:round;stroke-linejoin:round;stroke-miterlimit:4;stroke-dasharray:none;stroke-dashoffset:0;stroke-opacity:1"
       id="rect848-7-6-1-6"
       width="0.84790897"
       height="14.509124"
       x="-83.669548"
       y="131.27898" />
    <rect
       style="fill:#000000;fill-opacity:1;stroke:none;stroke-width:0.06505894;stroke-linecap:round;stroke-linejoin:round;stroke-miterlimit:4;stroke-dasharray:none;stroke-dashoffset:0;stroke-opacity:1"
       id="rect848-7-6-5-1-3"
       width="0.8457185"
       height="14.501442"
       x="-80.27504"
       y="131.27898" />
    <rect
       style="fill:#000000;fill-opacity:1;stroke:none;stroke-width:0.09235796;stroke-linecap:round;stroke-linejoin:round;stroke-miterlimit:4;stroke-dasharray:none;stroke-dashoffset:0;stroke-opacity:1"
       id="rect848-7-6-5-6-5-8"
       width="1.704357"
       height="14.501442"
       x="-76.887604"
       y="131.27898" />
    <rect
       style="fill:#000000;fill-opacity:1;stroke:none;stroke-width:0.06572948;stroke-linecap:round;stroke-linejoin:round;stroke-miterlimit:4;stroke-dasharray:none;stroke-dashoffset:0;stroke-opacity:1"
       id="rect848-7-6-5-6-3-98-5"
       width="0.86324179"
       height="14.501442"
       x="-74.338028"
       y="131.27898" />
    <rect
       style="fill:#000000;fill-opacity:1;stroke:none;stroke-width:0.09188193;stroke-linecap:round;stroke-linejoin:round;stroke-miterlimit:4;stroke-dasharray:none;stroke-dashoffset:0;stroke-opacity:1"
       id="rect848-7-6-5-6-3-9-48-6"
       width="1.6868339"
       height="14.501442"
       x="-70.938499"
       y="131.27898" />
    <rect
       style="fill:#000000;fill-opacity:1;stroke:none;stroke-width:0.06688361;stroke-linecap:round;stroke-linejoin:round;stroke-miterlimit:4;stroke-dasharray:none;stroke-dashoffset:0;stroke-opacity:1"
       id="rect848-7-6-5-6-3-9-4-1-1"
       width="0.89382273"
       height="14.501442"
       x="-66.735466"
       y="131.27898" />
    <rect
       style="fill:#000000;fill-opacity:1;stroke:none;stroke-width:0.09188193;stroke-linecap:round;stroke-linejoin:round;stroke-miterlimit:4;stroke-dasharray:none;stroke-dashoffset:0;stroke-opacity:1"
       id="rect848-7-6-5-6-3-9-4-8-0-1"
       width="1.6868339"
       height="14.501442"
       x="-64.994522"
       y="131.27898" />
    <rect
       style="fill:#000000;fill-opacity:1;stroke:none;stroke-width:0.11251323;stroke-linecap:round;stroke-linejoin:round;stroke-miterlimit:4;stroke-dasharray:none;stroke-dashoffset:0;stroke-opacity:1"
       id="rect848-7-6-5-6-3-9-4-8-1-3-5"
       width="2.5294082"
       height="14.501442"
       x="-62.448231"
       y="131.27898" />
    <rect
       style="fill:#000000;fill-opacity:1;stroke:none;stroke-width:0.06572948;stroke-linecap:round;stroke-linejoin:round;stroke-miterlimit:4;stroke-dasharray:none;stroke-dashoffset:0;stroke-opacity:1"
       id="rect848-7-6-5-6-3-9-4-8-2-0-9"
       width="0.86324179"
       height="14.501442"
       x="-57.377457"
       y="131.27898" />
    <rect
       style="fill:#000000;fill-opacity:1;stroke:none;stroke-width:0.09240229;stroke-linecap:round;stroke-linejoin:round;stroke-miterlimit:4;stroke-dasharray:none;stroke-dashoffset:0;stroke-opacity:1"
       id="rect848-7-6-5-6-3-9-4-8-2-9-4-8"
       width="1.705994"
       height="14.501442"
       x="53.97031"
       y="131.27898"
       transform="scale(-1,1)" />
    <rect
       style="fill:#000000;fill-opacity:1;stroke:none;stroke-width:0.064445;stroke-linecap:round;stroke-linejoin:round;stroke-miterlimit:4;stroke-dasharray:none;stroke-dashoffset:0;stroke-opacity:1"
       id="rect848-7-6-5-6-3-9-4-8-2-9-3-4-4"
       width="0.82983226"
       height="14.501442"
       x="50.587761"
       y="131.27898"
       transform="scale(-1,1)" />
    <rect
       style="fill:#000000;fill-opacity:1;stroke:none;stroke-width:0.11293855;stroke-linecap:round;stroke-linejoin:round;stroke-miterlimit:4;stroke-dasharray:none;stroke-dashoffset:0;stroke-opacity:1"
       id="rect848-7-6-5-6-3-9-4-8-2-9-9-4-8"
       width="2.5485682"
       height="14.501442"
       x="47.179485"
       y="131.27898"
       transform="scale(-1,1)" />
    <rect
       style="fill:#000000;fill-opacity:1;stroke:none;stroke-width:0.11251713;stroke-linecap:round;stroke-linejoin:round;stroke-miterlimit:4;stroke-dasharray:none;stroke-dashoffset:0;stroke-opacity:1"
       id="rect848-7-6-5-6-3-9-4-8-2-9-0-4-1"
       width="2.5295861"
       height="14.501442"
       x="43.80122"
       y="131.27898"
       transform="scale(-1,1)" />
    <rect
       style="fill:#000000;fill-opacity:1;stroke:none;stroke-width:0.06545767;stroke-linecap:round;stroke-linejoin:round;stroke-miterlimit:4;stroke-dasharray:none;stroke-dashoffset:0;stroke-opacity:1"
       id="rect848-7-6-5-6-3-9-4-8-2-9-8-7-0"
       width="0.85611701"
       height="14.501442"
       x="40.390392"
       y="131.27898"
       transform="scale(-1,1)" />
    <rect
       style="fill:#000000;fill-opacity:1;stroke:none;stroke-width:0.0919265;stroke-linecap:round;stroke-linejoin:round;stroke-miterlimit:4;stroke-dasharray:none;stroke-dashoffset:0;stroke-opacity:1"
       id="rect848-7-6-5-6-3-9-4-8-2-9-8-8-6-3"
       width="1.6884706"
       height="14.501442"
       x="37.853535"
       y="131.27898"
       transform="scale(-1,1)" />
    <rect
       style="fill:#000000;fill-opacity:1;stroke:none;stroke-width:0.09240229;stroke-linecap:round;stroke-linejoin:round;stroke-miterlimit:4;stroke-dasharray:none;stroke-dashoffset:0;stroke-opacity:1"
       id="rect848-7-6-5-6-3-9-4-8-2-9-8-8-5-3-0"
       width="1.7059939"
       height="14.501442"
       x="35.303955"
       y="131.27898"
       transform="scale(-1,1)" />
    <rect
       style="fill:#000000;fill-opacity:1;stroke:none;stroke-width:0.11310021;stroke-linecap:round;stroke-linejoin:round;stroke-miterlimit:4;stroke-dasharray:none;stroke-dashoffset:0;stroke-opacity:1"
       id="rect848-7-6-5-6-3-9-4-8-2-9-8-8-0-1-4"
       width="2.5558708"
       height="14.501442"
       x="30.222223"
       y="131.27898"
       transform="scale(-1,1)" />
    <rect
       style="fill:#000000;fill-opacity:1;stroke:none;stroke-width:0.06545767;stroke-linecap:round;stroke-linejoin:round;stroke-miterlimit:4;stroke-dasharray:none;stroke-dashoffset:0;stroke-opacity:1"
       id="rect848-7-6-5-6-3-9-4-8-2-9-8-8-0-9-7-4"
       width="0.85611701"
       height="14.501442"
       x="28.522486"
       y="131.27898"
       transform="scale(-1,1)" />
    <rect
       style="fill:#000000;fill-opacity:1;stroke:none;stroke-width:0.09263927;stroke-linecap:round;stroke-linejoin:round;stroke-miterlimit:4;stroke-dasharray:none;stroke-dashoffset:0;stroke-opacity:1"
       id="rect848-7-6-5-6-3-9-4-8-2-9-8-8-0-6-5-4"
       width="1.7147555"
       height="14.501442"
       x="25.964025"
       y="131.27898"
       transform="scale(-1,1)" />
    <rect
       transform="rotate(90)"
       style="fill:#d40000;fill-opacity:1;stroke:none;stroke-width:0.04056754;stroke-linecap:round;stroke-linejoin:round;stroke-miterlimit:4;stroke-dasharray:none;stroke-dashoffset:0;stroke-opacity:1"
       id="rect848-7-6-1-6-1"
       width="0.27831686"
       height="17.133299"
       x="153.71855"
       y="75.203819" />
    <g
       id="g1097"
       style="fill:#d40000"
       transform="matrix(3.4444626,0,0,3.4444626,227.33487,-376.43956)">
      <path
         d="m -92.579973,153.65177 0.0635,0.0635 h 0.79375 l 0.0635,-0.0635 v -0.43391 h -0.169333 c 0,0.0211 -0.0035,0.0635 -0.01058,0.127 -0.0071,0.0565 -0.01411,0.0917 -0.02117,0.10583 0,0.0141 -0.01058,0.0282 -0.03175,0.0423 -0.01411,0.0141 -0.0247,0.0212 -0.03175,0.0212 h -0.391584 l -0.0635,-0.0635 v -1.04775 l 0.0635,-0.0635 h 0.391584 c 0.0071,0 0.01764,0.007 0.03175,0.0212 0.02117,0.0141 0.03175,0.0282 0.03175,0.0423 0.0071,0.0141 0.01411,0.0529 0.02117,0.11642 0.0071,0.0565 0.01058,0.0953 0.01058,0.11641 h 0.169333 v -0.37041 l -0.137583,-0.127 h -0.656167 l -0.127,0.127 z"
         style="font-style:normal;font-variant:normal;font-weight:normal;font-stretch:normal;font-size:10.58333302px;line-height:1.25;font-family:'barcode font';-inkscape-font-specification:'barcode font, Normal';font-variant-ligatures:normal;font-variant-caps:normal;font-variant-numeric:normal;font-feature-settings:normal;text-align:start;letter-spacing:0px;word-spacing:0px;writing-mode:lr-tb;text-anchor:start;fill:#d40000;fill-opacity:1;stroke:none;stroke-width:0.26458332"
         id="path971"
         inkscape:connector-curvature="0"
         sodipodi:nodetypes="cccccccccsccccscccccccccc" />
      <path
         d="m -90.780808,152.17011 v 1.54516 h 0.179916 v -0.77258 h 0.645584 v -0.20108 h -0.624417 v -0.39159 h 0.687917 v -0.17991 z"
         style="font-style:normal;font-variant:normal;font-weight:normal;font-stretch:normal;font-size:10.58333302px;line-height:1.25;font-family:'barcode font';-inkscape-font-specification:'barcode font, Normal';font-variant-ligatures:normal;font-variant-caps:normal;font-variant-numeric:normal;font-feature-settings:normal;text-align:start;letter-spacing:0px;word-spacing:0px;writing-mode:lr-tb;text-anchor:start;fill:#d40000;fill-opacity:1;stroke:none;stroke-width:0.26458332"
         id="path973"
         inkscape:connector-curvature="0"
         sodipodi:nodetypes="ccccccccccc" />
      <path
         d="m -88.632394,152.35002 v 1.36525 h 0.1905 v -1.36525 h 0.381 v -0.17991 h -0.9525 v 0.17991 z"
         style="font-style:normal;font-variant:normal;font-weight:normal;font-stretch:normal;font-size:10.58333302px;line-height:1.25;font-family:'barcode font';-inkscape-font-specification:'barcode font, Normal';font-variant-ligatures:normal;font-variant-caps:normal;font-variant-numeric:normal;font-feature-settings:normal;text-align:start;letter-spacing:0px;word-spacing:0px;writing-mode:lr-tb;text-anchor:start;fill:#d40000;fill-opacity:1;stroke:none;stroke-width:0.26458332"
         id="path975"
         inkscape:connector-curvature="0"
         sodipodi:nodetypes="ccccccccc" />
    </g>
    <path
       sodipodi:nodetypes="ccscscccscsccscscscccsssccscc"
       inkscape:connector-curvature="0"
       id="path977"
       style="font-style:normal;font-variant:normal;font-weight:normal;font-stretch:normal;font-size:10.58333302px;line-height:1.25;font-family:'barcode font';-inkscape-font-specification:'barcode font, Normal';font-variant-ligatures:normal;font-variant-caps:normal;font-variant-numeric:normal;font-feature-settings:normal;text-align:start;letter-spacing:0px;word-spacing:0px;writing-mode:lr-tb;text-anchor:start;fill:#000000;fill-opacity:1;stroke:none;stroke-width:0.91134733"
       d="m -72.852554,147.70468 v 5.32225 h 2.405957 c 0.340244,0 0.595413,-0.17016 0.765532,-0.51033 0.170122,-0.36453 0.255165,-0.68049 0.255165,-0.94782 0,-0.26729 -0.0486,-0.53465 -0.145804,-0.80197 -0.0972,-0.29175 -0.315926,-0.48605 -0.65617,-0.58329 0.170122,-0.19461 0.303767,-0.37675 0.400994,-0.5468 0.121521,-0.17016 0.182281,-0.38888 0.182281,-0.65618 0,-0.21872 -0.06076,-0.48594 -0.182281,-0.80197 -0.0972,-0.31586 -0.303767,-0.47389 -0.619717,-0.47389 z m 0.692626,2.95277 h 1.348793 c 0.267325,0 0.449599,0.10953 0.546808,0.32825 0.0972,0.19462 0.145805,0.38892 0.145805,0.58326 0,0.12158 -0.03644,0.27934 -0.109362,0.47388 -0.0486,0.19462 -0.170122,0.29175 -0.364538,0.29175 h -1.567516 z m 0,-2.26016 h 1.458155 c 0.19444,0 0.303801,0.0851 0.328085,0.25524 0.02446,0.17016 0.03644,0.31586 0.03644,0.43745 v 0.32791 c -0.0486,0.0486 -0.133679,0.13364 -0.255166,0.25523 -0.0972,0.12159 -0.170122,0.18222 -0.218723,0.18222 h -1.348793 z" />
    <path
       sodipodi:nodetypes="cccsscccccccccccccccccc"
       inkscape:connector-curvature="0"
       id="path979"
       style="font-style:normal;font-variant:normal;font-weight:normal;font-stretch:normal;font-size:10.58333302px;line-height:1.25;font-family:'barcode font';-inkscape-font-specification:'barcode font, Normal';font-variant-ligatures:normal;font-variant-caps:normal;font-variant-numeric:normal;font-feature-settings:normal;text-align:start;letter-spacing:0px;word-spacing:0px;writing-mode:lr-tb;text-anchor:start;fill:#000000;fill-opacity:1;stroke:none;stroke-width:0.91134733"
       d="m -67.493839,153.02693 h 0.729079 l 0.619714,-1.71331 h 1.312341 c 0.02446,0 0.06076,0.0486 0.109361,0.1457 0.0486,0.0971 0.08508,0.17015 0.109362,0.21872 0.0486,0.0971 0.121521,0.31586 0.218723,0.65617 0.121521,0.34031 0.206565,0.57113 0.255166,0.69261 h 0.729076 l -1.749787,-5.4316 h -0.692623 z m 2.04142,-3.8641 c 0.07292,0 0.133679,0.0606 0.182281,0.18221 0.07292,0.12159 0.12152,0.26729 0.145804,0.43744 0.0486,0.14571 0.08508,0.29175 0.109361,0.43745 0.0486,0.1457 0.07292,0.25524 0.07292,0.32791 h -1.020708 c 0.02446,-0.0727 0.0486,-0.18221 0.07292,-0.32791 0.02446,-0.1457 0.0486,-0.29174 0.07292,-0.43745 0.0486,-0.17015 0.0972,-0.31585 0.145804,-0.43744 0.07292,-0.12159 0.145805,-0.18221 0.218724,-0.18221 z" />
    <path
       sodipodi:nodetypes="cccccccccccccsccscccsccssccccc"
       inkscape:connector-curvature="0"
       id="path981"
       style="font-style:normal;font-variant:normal;font-weight:normal;font-stretch:normal;font-size:10.58333302px;line-height:1.25;font-family:'barcode font';-inkscape-font-specification:'barcode font, Normal';font-variant-ligatures:normal;font-variant-caps:normal;font-variant-numeric:normal;font-feature-settings:normal;text-align:start;letter-spacing:0px;word-spacing:0px;writing-mode:lr-tb;text-anchor:start;fill:#d40000;fill-opacity:1;stroke:none;stroke-width:0.91134733"
       d="m -61.223777,147.70468 v 5.32225 h 0.619718 v -2.11432 c 0.0486,0 0.182281,-0.0241 0.400994,-0.073 0.243041,-0.073 0.388842,-0.0975 0.437447,-0.073 0.0486,0.0241 0.12152,0.0971 0.218723,0.21872 0.121521,0.0971 0.206564,0.17016 0.255166,0.21872 l 0.874893,1.82268 h 0.729079 c 0,-0.41313 -0.157963,-0.82626 -0.473903,-1.23942 -0.291642,-0.43745 -0.55896,-0.81414 -0.801984,-1.13006 0.19444,-0.26729 0.388849,-0.47393 0.583261,-0.61973 0.218723,-0.1457 0.328085,-0.42529 0.328085,-0.83845 0,-0.0971 -0.01206,-0.21873 -0.03644,-0.36453 -0.02446,-0.17016 -0.07288,-0.34031 -0.145805,-0.51037 -0.07292,-0.17015 -0.157963,-0.31585 -0.255165,-0.43744 -0.0972,-0.12159 -0.218724,-0.18222 -0.364538,-0.18222 z m 0.656171,0.69261 h 1.603972 c 0.07292,0 0.121521,0.0486 0.145804,0.1457 0.0486,0.0727 0.07292,0.17016 0.07292,0.29175 0.02446,0.0971 0.03644,0.19427 0.03644,0.29175 v 0.1457 c 0,0.0486 -0.01206,0.12159 -0.03644,0.21872 v 0.1457 l -0.328085,0.32791 h -1.49461 z" />
    <path
       sodipodi:nodetypes="cccccccccsccccscccccccccc"
       inkscape:connector-curvature="0"
       id="path983"
       style="font-style:normal;font-variant:normal;font-weight:normal;font-stretch:normal;font-size:10.58333302px;line-height:1.25;font-family:'barcode font';-inkscape-font-specification:'barcode font, Normal';font-variant-ligatures:normal;font-variant-caps:normal;font-variant-numeric:normal;font-feature-settings:normal;text-align:start;letter-spacing:0px;word-spacing:0px;writing-mode:lr-tb;text-anchor:start;fill:#000000;fill-opacity:1;stroke:none;stroke-width:0.91134733"
       d="m -55.02662,152.8082 0.218723,0.21873 h 2.734042 l 0.218724,-0.21873 v -1.49458 h -0.583261 c 0,0.0727 -0.01206,0.21872 -0.03644,0.43744 -0.02446,0.19462 -0.0486,0.31586 -0.07292,0.36453 0,0.0486 -0.03644,0.0971 -0.109362,0.1457 -0.0486,0.0486 -0.08508,0.073 -0.109361,0.073 h -1.348793 l -0.218724,-0.21872 v -3.60893 l 0.218724,-0.21873 h 1.348793 c 0.02446,0 0.06076,0.0241 0.109361,0.073 0.07292,0.0486 0.109362,0.0971 0.109362,0.1457 0.02446,0.0486 0.0486,0.18221 0.07292,0.401 0.02446,0.19461 0.03644,0.32826 0.03644,0.40097 h 0.583261 v -1.27586 l -0.4739,-0.43745 h -2.260142 l -0.437447,0.43745 z" />
    <path
       sodipodi:nodetypes="cccccccccccccccccc"
       inkscape:connector-curvature="0"
       id="path985"
       style="font-style:normal;font-variant:normal;font-weight:normal;font-stretch:normal;font-size:10.58333302px;line-height:1.25;font-family:'barcode font';-inkscape-font-specification:'barcode font, Normal';font-variant-ligatures:normal;font-variant-caps:normal;font-variant-numeric:normal;font-feature-settings:normal;text-align:start;letter-spacing:0px;word-spacing:0px;writing-mode:lr-tb;text-anchor:start;fill:#000000;fill-opacity:1;stroke:none;stroke-width:0.91134733"
       d="m -48.829464,152.58948 0.437447,0.43745 h 2.296595 l 0.437447,-0.43745 v -4.41091 l -0.437447,-0.47389 h -2.296595 l -0.437447,0.47389 z m 0.692623,-0.47389 v -3.49957 l 0.218724,-0.21873 h 1.348793 l 0.218723,0.21873 v 3.49957 l -0.218723,0.21872 h -1.348793 z" />
    <path
       sodipodi:nodetypes="ccscccsscccccccscccsccccscc"
       inkscape:connector-curvature="0"
       id="path987"
       style="font-style:normal;font-variant:normal;font-weight:normal;font-stretch:normal;font-size:10.58333302px;line-height:1.25;font-family:'barcode font';-inkscape-font-specification:'barcode font, Normal';font-variant-ligatures:normal;font-variant-caps:normal;font-variant-numeric:normal;font-feature-settings:normal;text-align:start;letter-spacing:0px;word-spacing:0px;writing-mode:lr-tb;text-anchor:start;fill:#000000;fill-opacity:1;stroke:none;stroke-width:0.91134733"
       d="m -42.304222,147.59532 v 5.32225 h 1.822692 c 0.121521,0 0.255201,-0.0606 0.400994,-0.18222 0.170122,-0.1457 0.315926,-0.3038 0.437447,-0.47392 0.145804,-0.17016 0.267325,-0.34031 0.364538,-0.51033 0.0972,-0.17016 0.145804,-0.3038 0.145804,-0.40101 v -2.15079 c 0,-0.17015 -0.0486,-0.34031 -0.145804,-0.51033 -0.07292,-0.19461 -0.182281,-0.36463 -0.328085,-0.51036 -0.145804,-0.17016 -0.303767,-0.30381 -0.4739,-0.40101 -0.170122,-0.12159 -0.340244,-0.18221 -0.510355,-0.18221 z m 0.692623,0.69261 h 0.255166 c 0.12152,-0.0241 0.206564,-0.0365 0.255165,-0.0365 0.121521,0 0.267325,0.0138 0.437447,0.0365 0.19444,0 0.328085,0.073 0.400991,0.21873 0.0486,0.0971 0.12152,0.23077 0.218723,0.401 0.0972,0.17016 0.145804,0.26729 0.145804,0.29175 v 2.26015 l -0.07292,0.10953 c -0.02446,0.0486 -0.03644,0.0851 -0.03644,0.10919 -0.07292,0.0971 -0.182281,0.21873 -0.328085,0.36453 -0.145804,0.12159 -0.230882,0.18221 -0.255165,0.18221 h -1.020708 z" />
    <path
       sodipodi:nodetypes="ccccccccccccc"
       inkscape:connector-curvature="0"
       id="path989"
       style="font-style:normal;font-variant:normal;font-weight:normal;font-stretch:normal;font-size:10.58333302px;line-height:1.25;font-family:'barcode font';-inkscape-font-specification:'barcode font, Normal';font-variant-ligatures:normal;font-variant-caps:normal;font-variant-numeric:normal;font-feature-settings:normal;text-align:start;letter-spacing:0px;word-spacing:0px;writing-mode:lr-tb;text-anchor:start;fill:#000000;fill-opacity:1;stroke:none;stroke-width:0.91134733"
       d="m -36.763236,147.70468 v 5.32225 h 3.171489 v -0.6197 h -2.478866 v -2.04143 h 2.150781 v -0.69261 h -2.150781 v -1.34882 h 2.369504 v -0.61969 z" />
    <path
       sodipodi:nodetypes="ccccccccccscccccccccccccccscccccc"
       inkscape:connector-curvature="0"
       id="path991"
       style="font-style:normal;font-variant:normal;font-weight:normal;font-stretch:normal;font-size:10.58333302px;line-height:1.25;font-family:'barcode font';-inkscape-font-specification:'barcode font, Normal';font-variant-ligatures:normal;font-variant-caps:normal;font-variant-numeric:normal;font-feature-settings:normal;text-align:start;letter-spacing:0px;word-spacing:0px;writing-mode:lr-tb;text-anchor:start;fill:#000000;fill-opacity:1;stroke:none;stroke-width:0.91134733"
       d="m -30.566083,152.69884 0.328085,0.32792 h 2.624681 l 0.218723,-0.21873 v -2.62468 l -0.328085,-0.36453 h -1.932058 l -0.218723,-0.29174 v -1.0207 l 0.218723,-0.21872 h 1.348793 c 0.02446,0 0.06076,0.0241 0.109362,0.073 0.07292,0.0486 0.109362,0.0971 0.109362,0.1457 0.02446,0.0486 0.0486,0.18221 0.07292,0.401 0.0486,0.19462 0.06076,0.32826 0.03644,0.40097 h 0.583264 v -1.38522 l -0.218723,-0.21872 h -2.515319 l -0.437447,0.47389 v 1.89559 l 0.328085,0.401 h 1.932054 l 0.218724,0.29175 v 1.34878 l -0.218724,0.21872 h -1.348793 c -0.02445,0 -0.07288,-0.0241 -0.145804,-0.073 -0.0486,-0.0486 -0.07292,-0.0971 -0.07292,-0.1457 -0.02446,-0.0486 -0.06076,-0.17016 -0.109362,-0.36453 -0.02445,-0.21872 -0.02445,-0.36466 0,-0.43745 h -0.583261 z" />
    <flowRoot
       xml:space="preserve"
       id="flowRoot885"
       style="font-style:normal;font-weight:normal;font-size:40px;line-height:1.25;font-family:sans-serif;letter-spacing:0px;word-spacing:0px;fill:#000000;fill-opacity:1;stroke:none"
       transform="matrix(0.91134737,0,0,0.91134737,227.33487,-376.43956)"><flowRegion
         id="flowRegion887"><rect
           id="rect889"
           width="979.84796"
           height="365.67523"
           x="-766.70581"
           y="-127.03902" /></flowRegion><flowPara
         id="flowPara891" /></flowRoot>    <rect
       transform="rotate(90)"
       style="fill:#d40000;fill-opacity:1;stroke:none;stroke-width:0.02065031;stroke-linecap:round;stroke-linejoin:round;stroke-miterlimit:4;stroke-dasharray:none;stroke-dashoffset:0;stroke-opacity:1"
       id="rect848-7-6-1-6-1-7"
       width="0.27831686"
       height="4.4395313"
       x="153.71855"
       y="57.235992" />
  </g>
</svg>
